HIERARCHY
ROOT Hips
{
  OFFSET 196.326 95.9168 97.7182
  CHANNELS 6 Xposition Yposition Zposition Zrotation Xrotation Yrotation
  JOINT LeftUpLeg
  {
    OFFSET 8.64259 1.95398 -2.38835
    CHANNELS 3 Zrotation Xrotation Yrotation
    JOINT LeftLeg
    {
      OFFSET 43.7702 0 0
      CHANNELS 3 Zrotation Xrotation Yrotation
      JOINT LeftFoot
      {
        OFFSET 40.6238 0 0
        CHANNELS 3 Zrotation Xrotation Yrotation
        JOINT LeftToeBase
        {
          OFFSET 12.7242 0 0
          CHANNELS 3 Zrotation Xrotation Yrotation
          End Site
          {
            OFFSET 0 0 0
          }
        }
      }
    }
  }
  JOINT RightUpLeg
  {
    OFFSET -8.2249 1.95398 -2.59336
    CHANNELS 3 Zrotation Xrotation Yrotation
    JOINT RightLeg
    {
      OFFSET 43.5653 0 0
      CHANNELS 3 Zrotation Xrotation Yrotation
      JOINT RightFoot
      {
        OFFSET 40.6238 0 0
        CHANNELS 3 Zrotation Xrotation Yrotation
        JOINT RightToeBase
        {
          OFFSET 12.7242 0 0
          CHANNELS 3 Zrotation Xrotation Yrotation
          End Site
          {
            OFFSET 0 0 0
          }
        }
      }
    }
  }
  JOINT Spine
  {
    OFFSET 0.165834 0.87714 6.61349
    CHANNELS 3 Zrotation Xrotation Yrotation
    JOINT Spine1
    {
      OFFSET 7.38963 1.71661e-005 0
      CHANNELS 3 Zrotation Xrotation Yrotation
      JOINT Spine2
      {
        OFFSET 11.9445 1.14441e-005 0
        CHANNELS 3 Zrotation Xrotation Yrotation
        JOINT Spine3
        {
          OFFSET 14.7254 4.19617e-005 0
          CHANNELS 3 Zrotation Xrotation Yrotation
          JOINT Spine4
          {
            OFFSET 10.9679 0 0
            CHANNELS 3 Zrotation Xrotation Yrotation
            JOINT RightShoulder
            {
              OFFSET 2.46616 -1.6653 3.69651
              CHANNELS 3 Zrotation Xrotation Yrotation
              JOINT RightArm
              {
                OFFSET 13.0012 0 0
                CHANNELS 3 Zrotation Xrotation Yrotation
                JOINT RightForeArm
                {
                  OFFSET 28.7848 1.52588e-005 0
                  CHANNELS 3 Zrotation Xrotation Yrotation
                  JOINT RightHand
                  {
                    OFFSET 26.5688 1.52588e-005 0
                    CHANNELS 3 Zrotation Xrotation Yrotation
                    End Site
                    {
                      OFFSET 0 0 0
                    }
                  }
                }
              }
            }
            JOINT LeftShoulder
            {
              OFFSET 2.38034 -1.29275 -3.75231
              CHANNELS 3 Zrotation Xrotation Yrotation
              JOINT LeftArm
              {
                OFFSET 16.3182 6.10351e-005 0
                CHANNELS 3 Zrotation Xrotation Yrotation
                JOINT LeftForeArm
                {
                  OFFSET 27.0901 0 0
                  CHANNELS 3 Zrotation Xrotation Yrotation
                  JOINT LeftHand
                  {
                    OFFSET 24.5451 1.52588e-005 0
                    CHANNELS 3 Zrotation Xrotation Yrotation
                    End Site
                    {
                      OFFSET 0 0 0
                    }
                  }
                }
              }
            }
            JOINT Neck
            {
              OFFSET 5.0226 -0.0266342 0
              CHANNELS 3 Zrotation Xrotation Yrotation
              JOINT Head
              {
                OFFSET 6.69363 2.86102e-005 0
                CHANNELS 3 Zrotation Xrotation Yrotation
                End Site
                {
                  OFFSET 0 0 0
                }
              }
            }
          }
        }
      }
    }
  }
}
MOTION
Frames:	14
Frame Time:	0.0416667
-287.662 92.3227 -291.399 36.8479 -45.3941 48.5598 -174.582 41.1062 85.9835 144.803 -73.5164 170.262 -18.9752 -28.7035 -48.3995 -158.993 -72.0035 -106.593 171.044 38.729 83.3446 -172.985 51.8449 155.178 85.1912 4.13147 -1.53661 40.8203 -13.8258 -149.254 3.48762 -1.20902 -88.8532 29.3844 7.27925 -0.115986 17.7339 7.26703 -0.437973 -4.95635 6.97584 2.08803 15.0563 6.97585 2.08802 113.335 -16.4785 -53.4323 79.7879 -47.1481 56.995 -2.3269 16.722 -106.208 -2.33865 0.912248 -44.9944 -86.5522 -24.3259 78.3557 -74.1937 30.0101 39.3315 -9.15421 -9.62032 -85.3486 9.49582 0.32269 -0.396023 -16.414 -4.01036 -0.296998 -53.9979 -0.0246907 -8.75381 
-285.437 93.1148 -290.664 52.4757 -50.5437 62.3152 -174.039 28.0255 87.2674 132.654 -82.059 157.114 -17.2379 -25.0863 -54.0985 -130.13 -59.8203 -88.1495 172.794 23.5165 82.9125 -176.075 49.7493 161.687 81.795 2.14423 -1.60827 45.3426 -28.9999 -151.819 2.65246 -0.00610634 -89.9965 26.8868 5.11354 -1.40612 15.2247 5.04668 -1.6303 -7.39014 5.29908 0.199895 12.6225 5.29907 0.199897 104.618 -24.989 -76.5367 67.3696 -30.5207 50.4826 1.80945 13.4411 -108.117 -0.757151 0.318432 -35.4369 -92.3445 -29.3907 68.5689 -66.2029 17.8589 38.3864 -10.3506 -8.95105 -86.9641 8.0167 0.313991 0.059981 -35.6763 -1.82214 2.72264 -34.2163 0.314654 -6.89698 
-284.833 94.317 -290.445 74.7999 -50.2789 78.8373 -173.239 15.3146 87.3742 -20.1901 -52.3038 3.28927 9.13319 -20.823 -47.0703 177.813 2.19907 -89.3772 -178.112 24.9502 89.4028 168.12 40.0671 -177.104 64.5865 -16.8057 -10.7278 62.011 -66.9449 -139.527 0.773771 2.33427 -90.3096 22.232 1.29402 -1.08791 10.5608 1.2449 -1.14381 -11.9743 1.561 -0.648722 8.03832 1.561 -0.648719 89.808 -36.7618 -104.298 50.2372 -19.056 43.2763 8.19104 10.6642 -110.312 2.40916 0.0809773 -15.485 -88.4204 -33.545 77.367 -58.284 15.3788 32.0141 -10.7501 -8.59308 -87.1652 6.07468 0.170391 -0.831815 -37.3024 1.16701 10.2429 -24.4828 3.67461 -3.67838 
-281.931 93.8741 -288.029 85.8219 -43.4383 88.0563 -172.273 9.86653 89.8124 -26.04 28.3604 -4.01443 40.3631 -15.345 5.26365 69.2993 41.4883 -8.32501 -178.227 25.4521 94.064 -12.4003 32.5825 0.147821 57.2315 -7.20185 -4.59166 45.6444 0.0542114 48.0475 -0.608055 3.87631 -90.0279 19.1283 -1.20135 0.218865 7.45798 -1.19056 0.27153 -15.0822 -1.21156 -0.152343 4.93042 -1.21156 -0.152343 75.5116 -48.2897 -123.333 34.2052 -13.2717 39.1667 15.3607 8.07594 -114.269 3.74837 0.973969 10.7376 -88.2654 -33.3749 77.5892 -50.3246 14.7775 25.5475 -12.481 -8.56207 -87.762 5.78012 0.163414 -1.08951 -37.1542 3.1958 5.25533 -15.8901 4.18972 1.09444 
-276.558 92.3885 -284.158 94.249 -37.7866 96.8003 -170.803 -0.535852 93.6958 -23.323 59.4206 -9.2683 42.0043 -8.9338 32.2324 55.0709 34.8129 14.2349 -173.745 21.9186 96.5618 -0.946047 18.2704 -2.9631 59.701 -0.797608 -0.319182 58.3743 3.54701 8.55331 -0.875427 5.8994 -90.0321 15.0786 -1.74751 0.197081 3.40882 -1.73712 0.273813 -19.1356 -1.72591 -0.337387 0.877076 -1.72592 -0.337391 77.3506 -52.7784 -118.598 26.1408 -12.9349 26.5864 20.3341 6.00121 -117.364 -0.226209 0.399695 21.1063 -90.1266 -34.1958 74.4502 -38.6358 14.3479 13.5981 -2.2132 -7.26823 -87.8807 -4.91503 -0.239306 2.32615 -25.2565 3.0297 -2.0294 -15.6587 2.66094 3.50999 
-270.001 90.3932 -278.791 101.157 -33.6652 102.632 -168.121 -10.0248 98.9818 -28.4955 64.7042 -7.1409 44.9312 -4.77304 35.4723 56.4744 35.0159 10.989 -176.868 17.2951 98.4998 -4.62256 23.2643 1.97962 62.1499 -2.01087 -1.11752 52.9933 3.88814 15.3151 -0.656354 7.70831 -90.3834 11.4552 -1.48495 -0.615135 -0.214952 -1.51059 -0.549178 -22.7542 -1.23142 -1.03302 -2.74151 -1.23142 -1.03302 85.3214 -52.2981 -107.239 22.7176 -11.683 13.7843 20.7735 4.75089 -119.216 -2.00039 -0.0904416 23.0727 -93.9817 -37.3369 68.77 -28.1716 11.8119 3.38076 1.8998 -6.33113 -88.1679 -8.6722 -0.597277 4.92747 -11.3377 0.851925 -4.18258 -19.2518 0.654426 3.13192 
-262.075 89.1359 -273.106 102.666 -33.8073 106.712 -166.161 -11.6085 104.328 -40.3036 49.1935 -0.539941 49.3202 -4.23171 17.2671 57.8462 36.4857 10.5397 -178.443 18.4289 101.806 -17.3227 14.9763 4.24361 55.0188 -1.25476 -0.660332 39.0788 0.985705 17.3806 -0.348562 8.22698 -91.0211 10.4078 -1.16229 -1.91831 -1.2639 -1.24557 -1.86534 -23.7891 -0.532157 -2.17882 -3.77643 -0.532151 -2.17882 86.6381 -51.2947 -105.576 21.0222 -10.3168 9.31251 20.0132 4.67469 -120.433 -1.82055 -0.0908544 26.247 -96.4722 -39.4509 65.4128 -26.7713 10.1866 1.45009 -3.55139 -6.80793 -87.3348 -3.00784 -0.148354 1.21947 -6.15518 0.192959 -2.29228 -20.8449 0.111912 2.27026 
-254.661 89.0336 -267.397 101.966 -34.2388 106.3 -169.391 -4.96067 104.086 -53.8091 33.7474 1.82655 41.2154 -11.5675 1.23958 59.6739 36.6217 6.38412 -177.464 22.6094 104.878 -34.0362 17.6698 1.53235 62.3833 -3.0617 -1.70414 31.4828 -0.6322 20.4731 -0.215694 8.07145 -91.1254 10.7164 -0.948096 -2.14952 -0.955869 -1.04176 -2.10575 -23.4772 -0.258438 -2.33498 -3.46451 -0.25845 -2.33499 86.2833 -50.5427 -106.325 20.9932 -10.7931 8.84235 19.5157 5.51131 -120.423 -0.845928 0.200703 27.771 -97.4047 -39.9356 64.091 -28.2279 10.8547 3.0826 -12.724 -7.91761 -86.7121 5.93422 0.0985156 -1.73466 -6.3687 0.238846 -1.35216 -21.1796 0.0801408 2.13302 
-247.469 90.6549 -261.547 97.5275 -36.4728 101.008 -172.452 9.13192 100.796 -63.285 23.1144 1.2961 44.2283 -7.8366 8.70567 43.5971 15.4377 -5.91006 -178.763 20.8736 102.717 -36.9264 12.8723 1.39463 68.0083 -3.09879 -1.66511 23.9283 -2.42884 19.7759 0.0257576 7.61259 -90.8771 11.6428 -0.359874 -1.71066 -0.0292245 -0.434787 -1.69319 -22.5554 0.170796 -1.73974 -2.54272 0.170803 -1.73974 85.1367 -49.7233 -108.307 20.2693 -9.86231 8.28616 21.3005 4.03219 -118.334 -0.321728 0.39564 23.8127 -97.4419 -40.8118 64.3831 -27.716 10.2611 2.00401 -15.5814 -8.54787 -85.7221 6.6312 0.0483345 -2.60631 -7.5737 0.586668 -0.4947 -19.9419 0.413335 1.79483 
-240.307 92.9759 -255.667 90.2873 -39.7574 93.7191 -172.837 22.4849 95.9305 -57.2582 14.4925 0.549076 51.9886 -1.53159 10.4259 47.3378 16.5767 -18.7711 -178.369 16.6386 100.318 -30.0526 10.3053 0.27463 71.8564 -4.31366 -2.20506 23.8926 -2.54074 20.7301 0.31676 6.99148 -90.5829 12.8921 0.34948 -1.20848 1.22062 0.295944 -1.22269 -21.3114 0.696494 -1.04761 -1.29878 0.696507 -1.04761 85.6747 -48.2327 -107.961 20.4933 -10.9828 5.80789 20.0615 3.50823 -111.752 -0.287485 0.364435 16.9535 -96.9473 -41.0417 65.269 -28.6723 8.68812 2.84488 -14.2859 -7.77029 -87.1625 7.77239 0.0601806 -2.69792 -7.86006 0.943097 1.18532 -20.0536 0.776416 0.688451 
-233.245 94.1525 -249.962 86.9596 -42.3224 88.989 -173.976 26.7258 92.5278 -37.2148 12.4506 0.0117575 55.3997 1.3259 11.6425 52.7654 26.3613 0.286848 -178.865 10.4947 97.5149 -25.069 6.74481 -0.541047 73.8621 -4.53512 -2.23652 26.7629 -1.82181 20.4979 0.47776 6.73454 -90.2911 13.4063 0.807146 -0.684413 1.7354 0.776237 -0.719281 -20.8011 0.975522 -0.410179 -0.788417 0.97552 -0.410191 85.616 -47.3697 -108.329 20.7029 -11.7106 3.97227 19.7913 0.74824 -103.786 -2.39374 0.0684214 7.88771 -95.8883 -41.0233 66.9683 -29.2794 6.30946 4.09723 -11.3017 -6.8579 -88.8702 4.41102 -0.0246781 -3.23645 -8.04909 1.87901 2.38217 -19.4168 1.65124 0.528625 
-226.308 94.2726 -244.532 87.982 -45.1472 87.4547 -174.501 24.27 90.781 -10.7768 11.7143 -0.485591 58.1333 4.12582 14.3726 55.4851 29.1785 0.0792732 178.502 0.727141 94.1547 -21.2743 2.13062 -0.100965 75.7811 -5.19279 -2.46945 30.8008 -0.790177 20.2414 0.626892 6.88354 -90.0667 13.1088 1.21221 -0.284056 1.43833 1.19849 -0.337134 -21.1014 1.24153 0.0934528 -1.08872 1.24151 0.0934492 86.0611 -45.9378 -108.099 20.8842 -13.1207 1.61819 18.2117 -1.13579 -97.6402 -6.54125 -0.2319 2.24818 -94.7768 -41.3353 68.8789 -29.6946 5.37851 4.6803 -11.7042 -6.40862 -91.1628 5.17286 0.00426345 -2.94367 -7.14071 2.67449 3.76101 -19.6862 2.34004 0.309464 
-219.789 93.2563 -239.332 92.9605 -48.1625 88.5038 -174.836 23.4801 89.0322 -3.4047 7.65721 -0.440439 62.0994 5.89387 14.3726 57.5162 31.7798 1.17463 176.085 -6.16922 89.9923 -23.9018 -2.61282 -1.77729 78.2718 -6.51368 -2.9332 37.1339 0.705017 17.8007 0.829732 7.2769 -89.7506 12.3189 1.76725 0.298153 0.649174 1.77864 0.220059 -21.8939 1.59593 0.815626 -1.88128 1.5959 0.815624 85.6371 -45.426 -108.943 20.7174 -16.1329 0.212223 30.0208 -0.203594 -100.279 -15.0983 -1.1948 3.29393 -93.6983 -41.677 70.7405 -29.2997 5.58013 4.36209 -10.9179 -6.06837 -93.3828 5.12089 0.128253 -1.02999 -6.79726 3.32396 4.31503 -20.159 3.00016 -0.278409 
-212.215 91.5542 -233.469 96.5896 -49.3967 88.4455 -174.346 21.1025 85.8088 -7.30879 9.10079 -2.30164 56.0642 2.98349 15.4569 58.2024 32.8295 1.88947 174.546 -8.07873 85.9714 -34.7363 -4.69804 -4.87522 73.1705 -4.4929 -2.20446 51.4474 4.20277 18.8756 0.963275 7.53022 -89.3527 11.8031 2.21993 1.05254 0.133735 2.26411 0.953764 -22.4088 1.801 1.67114 -2.3962 1.80099 1.67114 85.1648 -45.9578 -109.509 20.7167 -15.5689 1.15389 29.5836 0.42221 -100.605 -9.10526 -0.739629 5.41133 -92.9994 -41.7489 71.8975 -29.0039 7.30384 2.9257 -13.5346 -6.13667 -94.0663 8.90864 0.28293 -0.578756 -6.77097 3.00884 3.45961 -21.1591 2.76275 -0.342048 
